<?xml version="1.0" encoding="UTF-8" standalone="no"?>
<!DOCTYPE svg PUBLIC "-//W3C//DTD SVG 1.1//EN"
 "http://www.w3.org/Graphics/SVG/1.1/DTD/svg11.dtd">
<!-- Generated by graphviz version 2.47.0 (20210316.0004)
 -->
<!-- Title: dependencies Pages: 1 -->
<svg width="1743pt" height="211pt"
 viewBox="0.00 0.00 1743.00 211.00" xmlns="http://www.w3.org/2000/svg" xmlns:xlink="http://www.w3.org/1999/xlink">
<g id="graph0" class="graph" transform="scale(1 1) rotate(0) translate(4 207)">
<title>dependencies</title>
<polygon fill="white" stroke="transparent" points="-4,4 -4,-207 1739,-207 1739,4 -4,4"/>
<text text-anchor="start" x="846.51" y="-42.4" font-family="Times-12" font-weight="bold" font-size="14.00">Legend</text>
<polygon fill="#ffffb3" stroke="transparent" points="633.5,-10 633.5,-30 653.5,-30 653.5,-10 633.5,-10"/>
<text text-anchor="start" x="657.13" y="-15.4" font-family="Times-12" font-size="14.00"> &#160;Declarations</text>
<polygon fill="#8dd3c7" stroke="transparent" points="746.5,-10 746.5,-30 766.5,-30 766.5,-10 746.5,-10"/>
<text text-anchor="start" x="770.23" y="-15.4" font-family="Times-12" font-size="14.00"> &#160;Module</text>
<polygon fill="#80b1d3" stroke="transparent" points="832.5,-10 832.5,-30 852.5,-30 852.5,-10 832.5,-10"/>
<text text-anchor="start" x="856.28" y="-15.4" font-family="Times-12" font-size="14.00"> &#160;Bootstrap</text>
<polygon fill="#fdb462" stroke="transparent" points="929.5,-10 929.5,-30 949.5,-30 949.5,-10 929.5,-10"/>
<text text-anchor="start" x="953.17" y="-15.4" font-family="Times-12" font-size="14.00"> &#160;Providers</text>
<polygon fill="#fb8072" stroke="transparent" points="1025.5,-10 1025.5,-30 1045.5,-30 1045.5,-10 1025.5,-10"/>
<text text-anchor="start" x="1049.23" y="-15.4" font-family="Times-12" font-size="14.00"> &#160;Exports</text>
<g id="clust1" class="cluster">
<title>cluster_AppModule</title>
<polygon fill="none" stroke="black" stroke-dasharray="1,5" points="8,-70 8,-195 1727,-195 1727,-70 8,-70"/>
</g>
<g id="clust3" class="cluster">
<title>cluster_AppModule_imports</title>
<polygon fill="none" stroke="black" points="290,-78 290,-130 1719,-130 1719,-78 290,-78"/>
</g>
<g id="clust6" class="cluster">
<title>cluster_AppModule_providers</title>
<polygon fill="none" stroke="black" points="16,-78 16,-130 282,-130 282,-78 16,-78"/>
</g>
<!-- AuthModule -->
<g id="node1" class="node">
<title>AuthModule</title>
<polygon fill="#8dd3c7" stroke="black" points="1710.55,-122 1707.55,-126 1686.55,-126 1683.55,-122 1623.45,-122 1623.45,-86 1710.55,-86 1710.55,-122"/>
<text text-anchor="middle" x="1667" y="-99.8" font-family="Times,serif" font-size="14.00">AuthModule</text>
</g>
<!-- AppModule -->
<g id="node13" class="node">
<title>AppModule</title>
<polygon fill="#8dd3c7" stroke="black" points="949.66,-187 946.66,-191 925.66,-191 922.66,-187 866.34,-187 866.34,-151 949.66,-151 949.66,-187"/>
<text text-anchor="middle" x="908" y="-164.8" font-family="Times,serif" font-size="14.00">AppModule</text>
</g>
<!-- AuthModule&#45;&gt;AppModule -->
<g id="edge1" class="edge">
<title>AuthModule&#45;&gt;AppModule</title>
<path fill="none" stroke="black" d="M1667,-122.09C1667,-145.13 1667,-182 1667,-182 1667,-182 959.89,-182 959.89,-182"/>
<polygon fill="black" stroke="black" points="959.89,-178.5 949.89,-182 959.89,-185.5 959.89,-178.5"/>
</g>
<!-- CompaniesModule -->
<g id="node2" class="node">
<title>CompaniesModule</title>
<polygon fill="#8dd3c7" stroke="black" points="1605.04,-122 1602.04,-126 1581.04,-126 1578.04,-122 1482.96,-122 1482.96,-86 1605.04,-86 1605.04,-122"/>
<text text-anchor="middle" x="1544" y="-99.8" font-family="Times,serif" font-size="14.00">CompaniesModule</text>
</g>
<!-- CompaniesModule&#45;&gt;AppModule -->
<g id="edge2" class="edge">
<title>CompaniesModule&#45;&gt;AppModule</title>
<path fill="none" stroke="black" d="M1544,-122.04C1544,-143.66 1544,-177 1544,-177 1544,-177 959.73,-177 959.73,-177"/>
<polygon fill="black" stroke="black" points="959.73,-173.5 949.73,-177 959.73,-180.5 959.73,-173.5"/>
</g>
<!-- DatabasesModule -->
<g id="node3" class="node">
<title>DatabasesModule</title>
<polygon fill="#8dd3c7" stroke="black" points="1465.29,-122 1462.29,-126 1441.29,-126 1438.29,-122 1348.71,-122 1348.71,-86 1465.29,-86 1465.29,-122"/>
<text text-anchor="middle" x="1407" y="-99.8" font-family="Times,serif" font-size="14.00">DatabasesModule</text>
</g>
<!-- DatabasesModule&#45;&gt;AppModule -->
<g id="edge3" class="edge">
<title>DatabasesModule&#45;&gt;AppModule</title>
<path fill="none" stroke="black" d="M1407,-122.22C1407,-142.37 1407,-172 1407,-172 1407,-172 959.69,-172 959.69,-172"/>
<polygon fill="black" stroke="black" points="959.69,-168.5 949.69,-172 959.69,-175.5 959.69,-168.5"/>
</g>
<!-- FileModule -->
<g id="node4" class="node">
<title>FileModule</title>
<polygon fill="#8dd3c7" stroke="black" points="1330.83,-122 1327.83,-126 1306.83,-126 1303.83,-122 1249.17,-122 1249.17,-86 1330.83,-86 1330.83,-122"/>
<text text-anchor="middle" x="1290" y="-99.8" font-family="Times,serif" font-size="14.00">FileModule</text>
</g>
<!-- FileModule&#45;&gt;AppModule -->
<g id="edge4" class="edge">
<title>FileModule&#45;&gt;AppModule</title>
<path fill="none" stroke="black" d="M1290,-122.22C1290,-140.83 1290,-167 1290,-167 1290,-167 959.97,-167 959.97,-167"/>
<polygon fill="black" stroke="black" points="959.97,-163.5 949.97,-167 959.97,-170.5 959.97,-163.5"/>
</g>
<!-- HealthModule -->
<g id="node5" class="node">
<title>HealthModule</title>
<polygon fill="#8dd3c7" stroke="black" points="1231.37,-122 1228.37,-126 1207.37,-126 1204.37,-122 1134.63,-122 1134.63,-86 1231.37,-86 1231.37,-122"/>
<text text-anchor="middle" x="1183" y="-99.8" font-family="Times,serif" font-size="14.00">HealthModule</text>
</g>
<!-- HealthModule&#45;&gt;AppModule -->
<g id="edge5" class="edge">
<title>HealthModule&#45;&gt;AppModule</title>
<path fill="none" stroke="black" d="M1183,-122.03C1183,-139.06 1183,-162 1183,-162 1183,-162 959.77,-162 959.77,-162"/>
<polygon fill="black" stroke="black" points="959.77,-158.5 949.77,-162 959.77,-165.5 959.77,-158.5"/>
</g>
<!-- JobsModule -->
<g id="node6" class="node">
<title>JobsModule</title>
<polygon fill="#8dd3c7" stroke="black" points="1116.44,-122 1113.44,-126 1092.44,-126 1089.44,-122 1031.56,-122 1031.56,-86 1116.44,-86 1116.44,-122"/>
<text text-anchor="middle" x="1074" y="-99.8" font-family="Times,serif" font-size="14.00">JobsModule</text>
</g>
<!-- JobsModule&#45;&gt;AppModule -->
<g id="edge6" class="edge">
<title>JobsModule&#45;&gt;AppModule</title>
<path fill="none" stroke="black" d="M1074,-122.24C1074,-137.57 1074,-157 1074,-157 1074,-157 959.89,-157 959.89,-157"/>
<polygon fill="black" stroke="black" points="959.89,-153.5 949.89,-157 959.89,-160.5 959.89,-153.5"/>
</g>
<!-- MailModule -->
<g id="node7" class="node">
<title>MailModule</title>
<polygon fill="#8dd3c7" stroke="black" points="1013.99,-122 1010.99,-126 989.99,-126 986.99,-122 928.01,-122 928.01,-86 1013.99,-86 1013.99,-122"/>
<text text-anchor="middle" x="971" y="-99.8" font-family="Times,serif" font-size="14.00">MailModule</text>
</g>
<!-- MailModule&#45;&gt;AppModule -->
<g id="edge7" class="edge">
<title>MailModule&#45;&gt;AppModule</title>
<path fill="none" stroke="black" d="M938.92,-122.11C938.92,-122.11 938.92,-140.99 938.92,-140.99"/>
<polygon fill="black" stroke="black" points="935.42,-140.99 938.92,-150.99 942.42,-140.99 935.42,-140.99"/>
</g>
<!-- PermissionsModule -->
<g id="node8" class="node">
<title>PermissionsModule</title>
<polygon fill="#8dd3c7" stroke="black" points="909.71,-122 906.71,-126 885.71,-126 882.71,-122 782.29,-122 782.29,-86 909.71,-86 909.71,-122"/>
<text text-anchor="middle" x="846" y="-99.8" font-family="Times,serif" font-size="14.00">PermissionsModule</text>
</g>
<!-- PermissionsModule&#45;&gt;AppModule -->
<g id="edge8" class="edge">
<title>PermissionsModule&#45;&gt;AppModule</title>
<path fill="none" stroke="black" d="M887.89,-122.11C887.89,-122.11 887.89,-140.99 887.89,-140.99"/>
<polygon fill="black" stroke="black" points="884.39,-140.99 887.89,-150.99 891.39,-140.99 884.39,-140.99"/>
</g>
<!-- ResumesModule -->
<g id="node9" class="node">
<title>ResumesModule</title>
<polygon fill="#8dd3c7" stroke="black" points="764.1,-122 761.1,-126 740.1,-126 737.1,-122 653.9,-122 653.9,-86 764.1,-86 764.1,-122"/>
<text text-anchor="middle" x="709" y="-99.8" font-family="Times,serif" font-size="14.00">ResumesModule</text>
</g>
<!-- ResumesModule&#45;&gt;AppModule -->
<g id="edge9" class="edge">
<title>ResumesModule&#45;&gt;AppModule</title>
<path fill="none" stroke="black" d="M709,-122.24C709,-137.57 709,-157 709,-157 709,-157 856.28,-157 856.28,-157"/>
<polygon fill="black" stroke="black" points="856.28,-160.5 866.28,-157 856.28,-153.5 856.28,-160.5"/>
</g>
<!-- RolesModule -->
<g id="node10" class="node">
<title>RolesModule</title>
<polygon fill="#8dd3c7" stroke="black" points="635.94,-122 632.94,-126 611.94,-126 608.94,-122 544.06,-122 544.06,-86 635.94,-86 635.94,-122"/>
<text text-anchor="middle" x="590" y="-99.8" font-family="Times,serif" font-size="14.00">RolesModule</text>
</g>
<!-- RolesModule&#45;&gt;AppModule -->
<g id="edge10" class="edge">
<title>RolesModule&#45;&gt;AppModule</title>
<path fill="none" stroke="black" d="M590,-122.03C590,-139.06 590,-162 590,-162 590,-162 856.1,-162 856.1,-162"/>
<polygon fill="black" stroke="black" points="856.1,-165.5 866.1,-162 856.1,-158.5 856.1,-165.5"/>
</g>
<!-- SubcribersModule -->
<g id="node11" class="node">
<title>SubcribersModule</title>
<polygon fill="#8dd3c7" stroke="black" points="526.92,-122 523.92,-126 502.92,-126 499.92,-122 407.08,-122 407.08,-86 526.92,-86 526.92,-122"/>
<text text-anchor="middle" x="467" y="-99.8" font-family="Times,serif" font-size="14.00">SubcribersModule</text>
</g>
<!-- SubcribersModule&#45;&gt;AppModule -->
<g id="edge11" class="edge">
<title>SubcribersModule&#45;&gt;AppModule</title>
<path fill="none" stroke="black" d="M467,-122.22C467,-140.83 467,-167 467,-167 467,-167 856.11,-167 856.11,-167"/>
<polygon fill="black" stroke="black" points="856.11,-170.5 866.11,-167 856.11,-163.5 856.11,-170.5"/>
</g>
<!-- UsersModule -->
<g id="node12" class="node">
<title>UsersModule</title>
<polygon fill="#8dd3c7" stroke="black" points="389.92,-122 386.92,-126 365.92,-126 362.92,-122 298.08,-122 298.08,-86 389.92,-86 389.92,-122"/>
<text text-anchor="middle" x="344" y="-99.8" font-family="Times,serif" font-size="14.00">UsersModule</text>
</g>
<!-- UsersModule&#45;&gt;AppModule -->
<g id="edge12" class="edge">
<title>UsersModule&#45;&gt;AppModule</title>
<path fill="none" stroke="black" d="M344,-122.22C344,-142.37 344,-172 344,-172 344,-172 856.07,-172 856.07,-172"/>
<polygon fill="black" stroke="black" points="856.07,-175.5 866.07,-172 856.07,-168.5 856.07,-175.5"/>
</g>
<!-- AppService -->
<g id="node14" class="node">
<title>AppService</title>
<ellipse fill="#fdb462" stroke="black" cx="217" cy="-104" rx="56.74" ry="18"/>
<text text-anchor="middle" x="217" y="-99.8" font-family="Times,serif" font-size="14.00">AppService</text>
</g>
<!-- AppService&#45;&gt;AppModule -->
<g id="edge13" class="edge">
<title>AppService&#45;&gt;AppModule</title>
<path fill="none" stroke="black" d="M217,-122.04C217,-143.66 217,-177 217,-177 217,-177 856.33,-177 856.33,-177"/>
<polygon fill="black" stroke="black" points="856.33,-180.5 866.33,-177 856.33,-173.5 856.33,-180.5"/>
</g>
<!-- AuthService -->
<g id="node15" class="node">
<title>AuthService</title>
<ellipse fill="#fdb462" stroke="black" cx="83" cy="-104" rx="59.11" ry="18"/>
<text text-anchor="middle" x="83" y="-99.8" font-family="Times,serif" font-size="14.00">AuthService</text>
</g>
<!-- AuthService&#45;&gt;AppModule -->
<g id="edge14" class="edge">
<title>AuthService&#45;&gt;AppModule</title>
<path fill="none" stroke="black" d="M83,-122.09C83,-145.13 83,-182 83,-182 83,-182 856.24,-182 856.24,-182"/>
<polygon fill="black" stroke="black" points="856.24,-185.5 866.24,-182 856.24,-178.5 856.24,-185.5"/>
</g>
</g>
</svg>
